<svg width="27" height="32" viewBox="0 0 27 32" fill="none" xmlns="http://www.w3.org/2000/svg">
<path d="M12.9221 16.3413C8.33659 16.3413 4.60596 12.8331 4.60596 8.52073C4.60596 4.20854 8.33659 0.700317 12.9221 0.700317C17.5077 0.700317 21.2383 4.20854 21.2383 8.52073C21.2383 12.8331 17.5077 16.3413 12.9221 16.3413ZM12.9221 2.67635C9.56738 2.67635 6.8381 5.29811 6.8381 8.52073C6.8381 11.7434 9.56738 14.3652 12.9221 14.3652C16.2769 14.3652 19.0062 11.7434 19.0062 8.52073C19.0062 5.29811 16.2769 2.67635 12.9221 2.67635Z" fill="#00BFA6"/>
<path d="M12.9405 16.1547C8.34485 16.1547 4.60596 12.5313 4.60596 8.0773C4.60596 3.62346 8.34485 0 12.9405 0C17.5362 0 21.2751 3.62346 21.2751 8.0773C21.2751 12.5313 17.5362 16.1547 12.9405 16.1547ZM12.9405 2.04094C9.57835 2.04094 6.84304 4.74882 6.84304 8.0773C6.84304 11.4058 9.57835 14.1138 12.9405 14.1138C16.3027 14.1138 19.038 11.4058 19.038 8.0773C19.038 4.74882 16.3027 2.04094 12.9405 2.04094Z" fill="#00BFA6"/>
<path d="M21.0354 32H5.25033C3.85834 31.9986 2.52381 31.4935 1.53952 30.5955C0.555229 29.6975 0.00156587 28.48 0 27.2101V13.0842C0.0010714 12.2148 0.380119 11.3812 1.05398 10.7664C1.72785 10.1516 2.6415 9.8058 3.5945 9.80481H22.6912C23.6442 9.8058 24.5579 10.1516 25.2317 10.7664C25.9056 11.3812 26.2846 12.2148 26.2857 13.0842V27.2101C26.2841 28.48 25.7305 29.6975 24.7462 30.5955C23.7619 31.4935 22.4274 31.9986 21.0354 32V32Z" fill="white"/>
<path d="M16.1314 19.1497C16.1318 18.6509 15.9865 18.1609 15.7103 17.7304C15.4342 17.2998 15.0373 16.9442 14.5604 16.7001C14.0835 16.4561 13.5439 16.3324 12.9972 16.3418C12.4505 16.3513 11.9165 16.4935 11.45 16.7538C10.9836 17.0142 10.6017 17.3833 10.3436 17.823C10.0855 18.2628 9.96062 18.7574 9.98172 19.2559C10.0028 19.7544 10.1692 20.2387 10.4637 20.6591C10.7582 21.0794 11.1702 21.4205 11.6572 21.6472V26.0379H14.4536V21.6472C14.9584 21.4125 15.3823 21.055 15.6784 20.6143C15.9745 20.1735 16.1313 19.6667 16.1314 19.1497V19.1497Z" fill="white"/>
<path d="M16.1314 19.1497C16.1318 18.6509 15.9865 18.1609 15.7103 17.7304C15.4342 17.2998 15.0373 16.9442 14.5604 16.7001C14.0835 16.4561 13.5439 16.3324 12.9972 16.3418C12.4505 16.3513 11.9165 16.4935 11.45 16.7538C10.9836 17.0142 10.6017 17.3833 10.3436 17.823C10.0855 18.2628 9.96062 18.7574 9.98172 19.2559C10.0028 19.7544 10.1692 20.2387 10.4637 20.6591C10.7582 21.0794 11.1702 21.4205 11.6572 21.6472V26.0379H14.4536V21.6472C14.9584 21.4125 15.3823 21.055 15.6784 20.6143C15.9745 20.1735 16.1313 19.6667 16.1314 19.1497V19.1497Z" fill="#2F2E41"/>
</svg>
